# xmcd
#
# Track frame offsets:
#	150
#	12866
#	28982
#	46203
#	57145
#	70463
#	87759
#	102430
#	115697
#	133011
#	146602
#	164051
#	177642
#	197981
#	217498
#
# Disc length: 3166 seconds
# Revision: 0
# Processed by: cddbd v1.5.2PL0 Copyright (c) Steve Scherf et al.
# Submitted via: dBpowerAMP V12.0
#
DISCID=ea0c5c0f
DTITLE=Gilberto e Gabriel - Pôr do Sol
DYEAR=2009
DGENRE=Sertanejo
TTITLE0=Dona Encrenca
TTITLE1=Garota Nota 1000
TTITLE2=Pôr do Sol
TTITLE3=Questo Amore Mio
TTITLE4=Rei do pagode
TTITLE5=Diz a Verdade
TTITLE6=Brinquedo Não
TTITLE7=Puxa o Fole
TTITLE8=Não há Outro Amor
TTITLE9=Seu Adão
TTITLE10=Pé de Ipê
TTITLE11=O Chão Vai Tremer
TTITLE12=Frutos do Criador
TTITLE13=Roceiro da Cidade
TTITLE14=Homenagem
EXTD=
EXTT0=
EXTT1=
EXTT2=
EXTT3=
EXTT4=
EXTT5=
EXTT6=
EXTT7=
EXTT8=
EXTT9=
EXTT10=
EXTT11=
EXTT12=
EXTT13=
EXTT14=
PLAYORDER=
